<mxfile host="app.diagrams.net" modified="2023-04-22T03:48:53.272Z" agent="Mozilla/5.0 (Macintosh; Intel Mac OS X 10_15_7) AppleWebKit/537.36 (KHTML, like Gecko) Chrome/112.0.0.0 Safari/537.36" etag="-qn7vnsAaIfcYdk0ivMx" version="21.2.1" type="device">
  <diagram id="C5RBs43oDa-KdzZeNtuy" name="Page-1">
    <mxGraphModel dx="2385" dy="1540" grid="1" gridSize="10" guides="1" tooltips="1" connect="1" arrows="1" fold="1" page="1" pageScale="1" pageWidth="827" pageHeight="1169" math="0" shadow="0">
      <root>
        <mxCell id="WIyWlLk6GJQsqaUBKTNV-0" />
        <mxCell id="WIyWlLk6GJQsqaUBKTNV-1" parent="WIyWlLk6GJQsqaUBKTNV-0" />
        <mxCell id="o7xSzlbLKzh0_WVgbUHE-0" value="Ecosystem" style="rounded=1;whiteSpace=wrap;html=1;" vertex="1" parent="WIyWlLk6GJQsqaUBKTNV-1">
          <mxGeometry x="680" y="40" width="116" height="50" as="geometry" />
        </mxCell>
        <mxCell id="o7xSzlbLKzh0_WVgbUHE-1" value="Network" style="rounded=1;whiteSpace=wrap;html=1;" vertex="1" parent="WIyWlLk6GJQsqaUBKTNV-1">
          <mxGeometry x="680" y="150" width="116" height="50" as="geometry" />
        </mxCell>
        <mxCell id="o7xSzlbLKzh0_WVgbUHE-2" value="Organization&lt;br&gt;Directory" style="rounded=1;whiteSpace=wrap;html=1;" vertex="1" parent="WIyWlLk6GJQsqaUBKTNV-1">
          <mxGeometry x="110" y="550" width="116" height="50" as="geometry" />
        </mxCell>
        <mxCell id="o7xSzlbLKzh0_WVgbUHE-3" value="Organization" style="rounded=1;whiteSpace=wrap;html=1;" vertex="1" parent="WIyWlLk6GJQsqaUBKTNV-1">
          <mxGeometry x="100" y="720" width="116" height="50" as="geometry" />
        </mxCell>
        <mxCell id="o7xSzlbLKzh0_WVgbUHE-4" value="Enterprise Directory" style="rounded=1;whiteSpace=wrap;html=1;" vertex="1" parent="WIyWlLk6GJQsqaUBKTNV-1">
          <mxGeometry x="680" y="280" width="116" height="50" as="geometry" />
        </mxCell>
        <mxCell id="o7xSzlbLKzh0_WVgbUHE-5" value="Enterprise" style="rounded=1;whiteSpace=wrap;html=1;" vertex="1" parent="WIyWlLk6GJQsqaUBKTNV-1">
          <mxGeometry x="110" y="400" width="116" height="50" as="geometry" />
        </mxCell>
        <mxCell id="o7xSzlbLKzh0_WVgbUHE-6" value="" style="endArrow=classic;html=1;rounded=0;exitX=0.5;exitY=1;exitDx=0;exitDy=0;entryX=0.5;entryY=0;entryDx=0;entryDy=0;" edge="1" parent="WIyWlLk6GJQsqaUBKTNV-1" source="o7xSzlbLKzh0_WVgbUHE-0" target="o7xSzlbLKzh0_WVgbUHE-1">
          <mxGeometry width="50" height="50" relative="1" as="geometry">
            <mxPoint x="340" y="250" as="sourcePoint" />
            <mxPoint x="412" y="150" as="targetPoint" />
          </mxGeometry>
        </mxCell>
        <mxCell id="o7xSzlbLKzh0_WVgbUHE-7" value="" style="endArrow=classic;html=1;rounded=0;exitX=0.5;exitY=1;exitDx=0;exitDy=0;entryX=0.5;entryY=0;entryDx=0;entryDy=0;" edge="1" parent="WIyWlLk6GJQsqaUBKTNV-1" source="o7xSzlbLKzh0_WVgbUHE-1" target="o7xSzlbLKzh0_WVgbUHE-4">
          <mxGeometry width="50" height="50" relative="1" as="geometry">
            <mxPoint x="422" y="110" as="sourcePoint" />
            <mxPoint x="420" y="160" as="targetPoint" />
          </mxGeometry>
        </mxCell>
        <mxCell id="o7xSzlbLKzh0_WVgbUHE-8" value="Hotel" style="rounded=1;whiteSpace=wrap;html=1;" vertex="1" parent="WIyWlLk6GJQsqaUBKTNV-1">
          <mxGeometry x="320" y="400" width="116" height="50" as="geometry" />
        </mxCell>
        <mxCell id="o7xSzlbLKzh0_WVgbUHE-9" value="" style="endArrow=none;html=1;rounded=0;entryX=0;entryY=0.5;entryDx=0;entryDy=0;" edge="1" parent="WIyWlLk6GJQsqaUBKTNV-1" target="o7xSzlbLKzh0_WVgbUHE-4">
          <mxGeometry width="50" height="50" relative="1" as="geometry">
            <mxPoint x="160" y="300" as="sourcePoint" />
            <mxPoint x="540" y="410" as="targetPoint" />
          </mxGeometry>
        </mxCell>
        <mxCell id="o7xSzlbLKzh0_WVgbUHE-10" value="" style="endArrow=none;html=1;rounded=0;exitX=0.44;exitY=-0.04;exitDx=0;exitDy=0;exitPerimeter=0;" edge="1" parent="WIyWlLk6GJQsqaUBKTNV-1" source="o7xSzlbLKzh0_WVgbUHE-5">
          <mxGeometry width="50" height="50" relative="1" as="geometry">
            <mxPoint x="110" y="350" as="sourcePoint" />
            <mxPoint x="160" y="300" as="targetPoint" />
          </mxGeometry>
        </mxCell>
        <mxCell id="o7xSzlbLKzh0_WVgbUHE-11" value="" style="endArrow=classic;html=1;rounded=0;entryX=0.44;entryY=-0.04;entryDx=0;entryDy=0;entryPerimeter=0;" edge="1" parent="WIyWlLk6GJQsqaUBKTNV-1" target="o7xSzlbLKzh0_WVgbUHE-2">
          <mxGeometry width="50" height="50" relative="1" as="geometry">
            <mxPoint x="160" y="450" as="sourcePoint" />
            <mxPoint x="230" y="450" as="targetPoint" />
            <Array as="points">
              <mxPoint x="160" y="510" />
            </Array>
          </mxGeometry>
        </mxCell>
        <mxCell id="o7xSzlbLKzh0_WVgbUHE-12" value="" style="endArrow=classic;html=1;rounded=0;exitX=0.422;exitY=1.04;exitDx=0;exitDy=0;exitPerimeter=0;" edge="1" parent="WIyWlLk6GJQsqaUBKTNV-1" source="o7xSzlbLKzh0_WVgbUHE-2">
          <mxGeometry width="50" height="50" relative="1" as="geometry">
            <mxPoint x="250" y="680" as="sourcePoint" />
            <mxPoint x="159" y="720" as="targetPoint" />
          </mxGeometry>
        </mxCell>
        <mxCell id="o7xSzlbLKzh0_WVgbUHE-13" value="Celebration" style="rounded=1;whiteSpace=wrap;html=1;" vertex="1" parent="WIyWlLk6GJQsqaUBKTNV-1">
          <mxGeometry x="540" y="400" width="116" height="50" as="geometry" />
        </mxCell>
        <mxCell id="o7xSzlbLKzh0_WVgbUHE-15" value="Theatre" style="rounded=1;whiteSpace=wrap;html=1;" vertex="1" parent="WIyWlLk6GJQsqaUBKTNV-1">
          <mxGeometry x="1140" y="400" width="116" height="50" as="geometry" />
        </mxCell>
        <mxCell id="o7xSzlbLKzh0_WVgbUHE-16" value="Restaurant" style="rounded=1;whiteSpace=wrap;html=1;" vertex="1" parent="WIyWlLk6GJQsqaUBKTNV-1">
          <mxGeometry x="860" y="400" width="116" height="50" as="geometry" />
        </mxCell>
        <mxCell id="o7xSzlbLKzh0_WVgbUHE-17" value="Tour Guide" style="rounded=1;whiteSpace=wrap;html=1;" vertex="1" parent="WIyWlLk6GJQsqaUBKTNV-1">
          <mxGeometry x="320" y="690" width="116" height="50" as="geometry" />
        </mxCell>
        <mxCell id="o7xSzlbLKzh0_WVgbUHE-18" value="Room Booking" style="rounded=1;whiteSpace=wrap;html=1;" vertex="1" parent="WIyWlLk6GJQsqaUBKTNV-1">
          <mxGeometry x="320" y="550" width="116" height="50" as="geometry" />
        </mxCell>
        <mxCell id="o7xSzlbLKzh0_WVgbUHE-19" value="Safari Services" style="rounded=1;whiteSpace=wrap;html=1;" vertex="1" parent="WIyWlLk6GJQsqaUBKTNV-1">
          <mxGeometry x="320" y="830" width="116" height="50" as="geometry" />
        </mxCell>
        <mxCell id="o7xSzlbLKzh0_WVgbUHE-20" value="Anniversary" style="rounded=1;whiteSpace=wrap;html=1;" vertex="1" parent="WIyWlLk6GJQsqaUBKTNV-1">
          <mxGeometry x="550" y="830" width="116" height="50" as="geometry" />
        </mxCell>
        <mxCell id="o7xSzlbLKzh0_WVgbUHE-21" value="Weddings" style="rounded=1;whiteSpace=wrap;html=1;" vertex="1" parent="WIyWlLk6GJQsqaUBKTNV-1">
          <mxGeometry x="550" y="690" width="116" height="50" as="geometry" />
        </mxCell>
        <mxCell id="o7xSzlbLKzh0_WVgbUHE-22" value="Birthday" style="rounded=1;whiteSpace=wrap;html=1;" vertex="1" parent="WIyWlLk6GJQsqaUBKTNV-1">
          <mxGeometry x="550" y="550" width="116" height="50" as="geometry" />
        </mxCell>
        <mxCell id="o7xSzlbLKzh0_WVgbUHE-23" value="Magician" style="rounded=1;whiteSpace=wrap;html=1;" vertex="1" parent="WIyWlLk6GJQsqaUBKTNV-1">
          <mxGeometry x="1140" y="550" width="116" height="50" as="geometry" />
        </mxCell>
        <mxCell id="o7xSzlbLKzh0_WVgbUHE-24" value="Delivery Agent" style="rounded=1;whiteSpace=wrap;html=1;" vertex="1" parent="WIyWlLk6GJQsqaUBKTNV-1">
          <mxGeometry x="860" y="690" width="116" height="50" as="geometry" />
        </mxCell>
        <mxCell id="o7xSzlbLKzh0_WVgbUHE-25" value="Eatery(add menu, order)" style="rounded=1;whiteSpace=wrap;html=1;" vertex="1" parent="WIyWlLk6GJQsqaUBKTNV-1">
          <mxGeometry x="860" y="550" width="116" height="50" as="geometry" />
        </mxCell>
        <mxCell id="o7xSzlbLKzh0_WVgbUHE-26" value="Music Band" style="rounded=1;whiteSpace=wrap;html=1;" vertex="1" parent="WIyWlLk6GJQsqaUBKTNV-1">
          <mxGeometry x="1150" y="830" width="116" height="50" as="geometry" />
        </mxCell>
        <mxCell id="o7xSzlbLKzh0_WVgbUHE-27" value="Standup Comedy" style="rounded=1;whiteSpace=wrap;html=1;" vertex="1" parent="WIyWlLk6GJQsqaUBKTNV-1">
          <mxGeometry x="1150" y="690" width="116" height="50" as="geometry" />
        </mxCell>
        <mxCell id="o7xSzlbLKzh0_WVgbUHE-28" value="" style="endArrow=none;html=1;rounded=0;" edge="1" parent="WIyWlLk6GJQsqaUBKTNV-1">
          <mxGeometry width="50" height="50" relative="1" as="geometry">
            <mxPoint x="370" y="400" as="sourcePoint" />
            <mxPoint x="370" y="300" as="targetPoint" />
          </mxGeometry>
        </mxCell>
        <mxCell id="o7xSzlbLKzh0_WVgbUHE-29" value="" style="endArrow=classic;html=1;rounded=0;entryX=0.44;entryY=-0.02;entryDx=0;entryDy=0;entryPerimeter=0;" edge="1" parent="WIyWlLk6GJQsqaUBKTNV-1" target="o7xSzlbLKzh0_WVgbUHE-18">
          <mxGeometry width="50" height="50" relative="1" as="geometry">
            <mxPoint x="371" y="450" as="sourcePoint" />
            <mxPoint x="420" y="450" as="targetPoint" />
          </mxGeometry>
        </mxCell>
        <mxCell id="o7xSzlbLKzh0_WVgbUHE-30" value="" style="endArrow=classic;html=1;rounded=0;exitX=0.44;exitY=1.06;exitDx=0;exitDy=0;exitPerimeter=0;entryX=0.448;entryY=-0.1;entryDx=0;entryDy=0;entryPerimeter=0;" edge="1" parent="WIyWlLk6GJQsqaUBKTNV-1" source="o7xSzlbLKzh0_WVgbUHE-18" target="o7xSzlbLKzh0_WVgbUHE-17">
          <mxGeometry width="50" height="50" relative="1" as="geometry">
            <mxPoint x="380" y="670" as="sourcePoint" />
            <mxPoint x="371" y="680" as="targetPoint" />
          </mxGeometry>
        </mxCell>
        <mxCell id="o7xSzlbLKzh0_WVgbUHE-31" value="" style="endArrow=classic;html=1;rounded=0;exitX=0.44;exitY=1.06;exitDx=0;exitDy=0;exitPerimeter=0;entryX=0.448;entryY=-0.08;entryDx=0;entryDy=0;entryPerimeter=0;" edge="1" parent="WIyWlLk6GJQsqaUBKTNV-1" source="o7xSzlbLKzh0_WVgbUHE-17" target="o7xSzlbLKzh0_WVgbUHE-19">
          <mxGeometry width="50" height="50" relative="1" as="geometry">
            <mxPoint x="370" y="810" as="sourcePoint" />
            <mxPoint x="420" y="760" as="targetPoint" />
          </mxGeometry>
        </mxCell>
        <mxCell id="o7xSzlbLKzh0_WVgbUHE-32" value="" style="endArrow=none;html=1;rounded=0;exitX=0.5;exitY=0;exitDx=0;exitDy=0;" edge="1" parent="WIyWlLk6GJQsqaUBKTNV-1" source="o7xSzlbLKzh0_WVgbUHE-13">
          <mxGeometry width="50" height="50" relative="1" as="geometry">
            <mxPoint x="550" y="350" as="sourcePoint" />
            <mxPoint x="598" y="310" as="targetPoint" />
          </mxGeometry>
        </mxCell>
        <mxCell id="o7xSzlbLKzh0_WVgbUHE-33" value="" style="endArrow=classic;html=1;rounded=0;exitX=0.5;exitY=1;exitDx=0;exitDy=0;entryX=0.422;entryY=-0.06;entryDx=0;entryDy=0;entryPerimeter=0;" edge="1" parent="WIyWlLk6GJQsqaUBKTNV-1" source="o7xSzlbLKzh0_WVgbUHE-13" target="o7xSzlbLKzh0_WVgbUHE-22">
          <mxGeometry width="50" height="50" relative="1" as="geometry">
            <mxPoint x="630" y="520" as="sourcePoint" />
            <mxPoint x="598" y="540" as="targetPoint" />
          </mxGeometry>
        </mxCell>
        <mxCell id="o7xSzlbLKzh0_WVgbUHE-34" value="" style="endArrow=classic;html=1;rounded=0;exitX=0.448;exitY=1.04;exitDx=0;exitDy=0;exitPerimeter=0;entryX=0.448;entryY=-0.06;entryDx=0;entryDy=0;entryPerimeter=0;" edge="1" parent="WIyWlLk6GJQsqaUBKTNV-1" source="o7xSzlbLKzh0_WVgbUHE-22" target="o7xSzlbLKzh0_WVgbUHE-21">
          <mxGeometry width="50" height="50" relative="1" as="geometry">
            <mxPoint x="660" y="670" as="sourcePoint" />
            <mxPoint x="710" y="620" as="targetPoint" />
          </mxGeometry>
        </mxCell>
        <mxCell id="o7xSzlbLKzh0_WVgbUHE-35" value="" style="endArrow=classic;html=1;rounded=0;exitX=0.422;exitY=1.06;exitDx=0;exitDy=0;exitPerimeter=0;entryX=0.44;entryY=0;entryDx=0;entryDy=0;entryPerimeter=0;" edge="1" parent="WIyWlLk6GJQsqaUBKTNV-1" source="o7xSzlbLKzh0_WVgbUHE-21" target="o7xSzlbLKzh0_WVgbUHE-20">
          <mxGeometry width="50" height="50" relative="1" as="geometry">
            <mxPoint x="600" y="750" as="sourcePoint" />
            <mxPoint x="670" y="760" as="targetPoint" />
          </mxGeometry>
        </mxCell>
        <mxCell id="o7xSzlbLKzh0_WVgbUHE-36" value="" style="endArrow=none;html=1;rounded=0;" edge="1" parent="WIyWlLk6GJQsqaUBKTNV-1">
          <mxGeometry width="50" height="50" relative="1" as="geometry">
            <mxPoint x="800" y="300" as="sourcePoint" />
            <mxPoint x="1200" y="300" as="targetPoint" />
          </mxGeometry>
        </mxCell>
        <mxCell id="o7xSzlbLKzh0_WVgbUHE-37" value="" style="endArrow=none;html=1;rounded=0;exitX=0.5;exitY=0;exitDx=0;exitDy=0;" edge="1" parent="WIyWlLk6GJQsqaUBKTNV-1" source="o7xSzlbLKzh0_WVgbUHE-15">
          <mxGeometry width="50" height="50" relative="1" as="geometry">
            <mxPoint x="1160" y="370" as="sourcePoint" />
            <mxPoint x="1200" y="300" as="targetPoint" />
          </mxGeometry>
        </mxCell>
        <mxCell id="o7xSzlbLKzh0_WVgbUHE-38" value="" style="endArrow=none;html=1;rounded=0;exitX=0.431;exitY=-0.02;exitDx=0;exitDy=0;exitPerimeter=0;" edge="1" parent="WIyWlLk6GJQsqaUBKTNV-1" source="o7xSzlbLKzh0_WVgbUHE-16">
          <mxGeometry width="50" height="50" relative="1" as="geometry">
            <mxPoint x="910" y="390" as="sourcePoint" />
            <mxPoint x="910" y="300" as="targetPoint" />
          </mxGeometry>
        </mxCell>
        <mxCell id="o7xSzlbLKzh0_WVgbUHE-39" value="" style="endArrow=classic;html=1;rounded=0;exitX=0.5;exitY=1;exitDx=0;exitDy=0;entryX=0.5;entryY=0;entryDx=0;entryDy=0;" edge="1" parent="WIyWlLk6GJQsqaUBKTNV-1" source="o7xSzlbLKzh0_WVgbUHE-16" target="o7xSzlbLKzh0_WVgbUHE-25">
          <mxGeometry width="50" height="50" relative="1" as="geometry">
            <mxPoint x="940" y="510" as="sourcePoint" />
            <mxPoint x="990" y="460" as="targetPoint" />
          </mxGeometry>
        </mxCell>
        <mxCell id="o7xSzlbLKzh0_WVgbUHE-40" value="" style="endArrow=classic;html=1;rounded=0;exitX=0.5;exitY=1;exitDx=0;exitDy=0;entryX=0.5;entryY=0;entryDx=0;entryDy=0;" edge="1" parent="WIyWlLk6GJQsqaUBKTNV-1" source="o7xSzlbLKzh0_WVgbUHE-25" target="o7xSzlbLKzh0_WVgbUHE-24">
          <mxGeometry width="50" height="50" relative="1" as="geometry">
            <mxPoint x="970" y="670" as="sourcePoint" />
            <mxPoint x="1020" y="620" as="targetPoint" />
          </mxGeometry>
        </mxCell>
        <mxCell id="o7xSzlbLKzh0_WVgbUHE-41" value="" style="endArrow=classic;html=1;rounded=0;entryX=0.5;entryY=0;entryDx=0;entryDy=0;" edge="1" parent="WIyWlLk6GJQsqaUBKTNV-1" target="o7xSzlbLKzh0_WVgbUHE-23">
          <mxGeometry width="50" height="50" relative="1" as="geometry">
            <mxPoint x="1200" y="450" as="sourcePoint" />
            <mxPoint x="1250" y="400" as="targetPoint" />
          </mxGeometry>
        </mxCell>
        <mxCell id="o7xSzlbLKzh0_WVgbUHE-42" value="" style="endArrow=classic;html=1;rounded=0;entryX=0.44;entryY=-0.08;entryDx=0;entryDy=0;entryPerimeter=0;" edge="1" parent="WIyWlLk6GJQsqaUBKTNV-1" target="o7xSzlbLKzh0_WVgbUHE-27">
          <mxGeometry width="50" height="50" relative="1" as="geometry">
            <mxPoint x="1201" y="600" as="sourcePoint" />
            <mxPoint x="1280" y="600" as="targetPoint" />
          </mxGeometry>
        </mxCell>
        <mxCell id="o7xSzlbLKzh0_WVgbUHE-43" value="" style="endArrow=classic;html=1;rounded=0;exitX=0.44;exitY=1.04;exitDx=0;exitDy=0;exitPerimeter=0;entryX=0.44;entryY=0;entryDx=0;entryDy=0;entryPerimeter=0;" edge="1" parent="WIyWlLk6GJQsqaUBKTNV-1" source="o7xSzlbLKzh0_WVgbUHE-27" target="o7xSzlbLKzh0_WVgbUHE-26">
          <mxGeometry width="50" height="50" relative="1" as="geometry">
            <mxPoint x="1250" y="810" as="sourcePoint" />
            <mxPoint x="1300" y="760" as="targetPoint" />
          </mxGeometry>
        </mxCell>
        <mxCell id="o7xSzlbLKzh0_WVgbUHE-44" value="Work Queue" style="rounded=1;whiteSpace=wrap;html=1;" vertex="1" parent="WIyWlLk6GJQsqaUBKTNV-1">
          <mxGeometry x="100" y="960" width="116" height="50" as="geometry" />
        </mxCell>
        <mxCell id="o7xSzlbLKzh0_WVgbUHE-45" value="Work Request" style="rounded=1;whiteSpace=wrap;html=1;" vertex="1" parent="WIyWlLk6GJQsqaUBKTNV-1">
          <mxGeometry x="100" y="840" width="116" height="50" as="geometry" />
        </mxCell>
        <mxCell id="o7xSzlbLKzh0_WVgbUHE-46" value="" style="endArrow=classic;html=1;rounded=0;entryX=0.5;entryY=1;entryDx=0;entryDy=0;" edge="1" parent="WIyWlLk6GJQsqaUBKTNV-1" target="o7xSzlbLKzh0_WVgbUHE-45">
          <mxGeometry width="50" height="50" relative="1" as="geometry">
            <mxPoint x="160" y="960" as="sourcePoint" />
            <mxPoint x="210" y="910" as="targetPoint" />
          </mxGeometry>
        </mxCell>
        <mxCell id="o7xSzlbLKzh0_WVgbUHE-47" value="" style="endArrow=classic;html=1;rounded=0;exitX=0.5;exitY=0;exitDx=0;exitDy=0;entryX=0.5;entryY=1;entryDx=0;entryDy=0;" edge="1" parent="WIyWlLk6GJQsqaUBKTNV-1" source="o7xSzlbLKzh0_WVgbUHE-45" target="o7xSzlbLKzh0_WVgbUHE-3">
          <mxGeometry width="50" height="50" relative="1" as="geometry">
            <mxPoint x="150" y="840" as="sourcePoint" />
            <mxPoint x="200" y="790" as="targetPoint" />
          </mxGeometry>
        </mxCell>
        <mxCell id="o7xSzlbLKzh0_WVgbUHE-48" value="System Admin Role" style="ellipse;whiteSpace=wrap;html=1;aspect=fixed;" vertex="1" parent="WIyWlLk6GJQsqaUBKTNV-1">
          <mxGeometry x="230" y="930" width="50" height="50" as="geometry" />
        </mxCell>
        <mxCell id="o7xSzlbLKzh0_WVgbUHE-49" value="Hotel&lt;br&gt;Manager" style="ellipse;whiteSpace=wrap;html=1;aspect=fixed;" vertex="1" parent="WIyWlLk6GJQsqaUBKTNV-1">
          <mxGeometry x="300" y="920" width="60" height="60" as="geometry" />
        </mxCell>
        <mxCell id="o7xSzlbLKzh0_WVgbUHE-50" value="TourGuide&lt;br&gt;Manager" style="ellipse;whiteSpace=wrap;html=1;aspect=fixed;" vertex="1" parent="WIyWlLk6GJQsqaUBKTNV-1">
          <mxGeometry x="370" y="920" width="60" height="60" as="geometry" />
        </mxCell>
        <mxCell id="o7xSzlbLKzh0_WVgbUHE-53" value="Safari&amp;nbsp;&lt;br&gt;Manager" style="ellipse;whiteSpace=wrap;html=1;aspect=fixed;" vertex="1" parent="WIyWlLk6GJQsqaUBKTNV-1">
          <mxGeometry x="440" y="920" width="60" height="60" as="geometry" />
        </mxCell>
        <mxCell id="o7xSzlbLKzh0_WVgbUHE-54" value="Anniversary-&lt;br&gt;Manager" style="ellipse;whiteSpace=wrap;html=1;aspect=fixed;" vertex="1" parent="WIyWlLk6GJQsqaUBKTNV-1">
          <mxGeometry x="666" y="920" width="65" height="65" as="geometry" />
        </mxCell>
        <mxCell id="o7xSzlbLKzh0_WVgbUHE-55" value="Wedding&lt;br&gt;Manager" style="ellipse;whiteSpace=wrap;html=1;aspect=fixed;" vertex="1" parent="WIyWlLk6GJQsqaUBKTNV-1">
          <mxGeometry x="596" y="920" width="60" height="60" as="geometry" />
        </mxCell>
        <mxCell id="o7xSzlbLKzh0_WVgbUHE-56" value="Bdy&lt;br&gt;Manager" style="ellipse;whiteSpace=wrap;html=1;aspect=fixed;" vertex="1" parent="WIyWlLk6GJQsqaUBKTNV-1">
          <mxGeometry x="530" y="920" width="60" height="60" as="geometry" />
        </mxCell>
        <mxCell id="o7xSzlbLKzh0_WVgbUHE-57" value="Restaurant&lt;br&gt;Manager" style="ellipse;whiteSpace=wrap;html=1;aspect=fixed;" vertex="1" parent="WIyWlLk6GJQsqaUBKTNV-1">
          <mxGeometry x="860" y="910" width="60" height="60" as="geometry" />
        </mxCell>
        <mxCell id="o7xSzlbLKzh0_WVgbUHE-58" value="Delivery&lt;br&gt;Agent" style="ellipse;whiteSpace=wrap;html=1;aspect=fixed;" vertex="1" parent="WIyWlLk6GJQsqaUBKTNV-1">
          <mxGeometry x="930" y="910" width="60" height="60" as="geometry" />
        </mxCell>
        <mxCell id="o7xSzlbLKzh0_WVgbUHE-59" value="Magician&lt;br&gt;Manager" style="ellipse;whiteSpace=wrap;html=1;aspect=fixed;" vertex="1" parent="WIyWlLk6GJQsqaUBKTNV-1">
          <mxGeometry x="1140" y="910" width="60" height="60" as="geometry" />
        </mxCell>
        <mxCell id="o7xSzlbLKzh0_WVgbUHE-60" value="Standup&lt;br&gt;Manager" style="ellipse;whiteSpace=wrap;html=1;aspect=fixed;" vertex="1" parent="WIyWlLk6GJQsqaUBKTNV-1">
          <mxGeometry x="1211" y="910" width="60" height="60" as="geometry" />
        </mxCell>
        <mxCell id="o7xSzlbLKzh0_WVgbUHE-61" value="Music&lt;br&gt;Manager" style="ellipse;whiteSpace=wrap;html=1;aspect=fixed;" vertex="1" parent="WIyWlLk6GJQsqaUBKTNV-1">
          <mxGeometry x="1280" y="910" width="60" height="60" as="geometry" />
        </mxCell>
      </root>
    </mxGraphModel>
  </diagram>
</mxfile>
